# xmcd CD database file
#
# Track frame offsets:
#	187
#	21970
#	38805
#	56702
#	82012
#	103155
#	115962
#	146237
#	163207
#	188825
#	225927
#	231695
#
# Disc length: 3399 seconds
#
# Revision: 3
# Processed by: cddbd v1.5.2PL0 Copyright (c) Steve Scherf et al.
# Submitted via: CDex 1.51
#
DISCID=ab0d450c
DTITLE=マルコシアス･バンプ - DYNAMIC WAS RUBY
DYEAR=1991
DGENRE=ロック
TTITLE0=MIDNIGHT SUNSET
TTITLE1=MONUMENT
TTITLE2=CHANGE MY MIND
TTITLE3=眠れない夜
TTITLE4=20世紀のミスキャスト
TTITLE5=GRIND TO CRY
TTITLE6=すべてこのままに
TTITLE7=強い無意識
TTITLE8=HALF NOTE （密告者）
TTITLE9=REVENGE FAIR
TTITLE10=COMFORTS PLACEにて
TTITLE11=TOMORROW
EXTD=YEAR: 1991
EXTT0=
EXTT1=
EXTT2=
EXTT3=
EXTT4=
EXTT5=
EXTT6=
EXTT7=
EXTT8=
EXTT9=
EXTT10=
EXTT11=
PLAYORDER=
